<?xml version="1.0" standalone="no"?><!DOCTYPE svg PUBLIC "-//W3C//DTD SVG 1.1//EN" "http://www.w3.org/Graphics/SVG/1.1/DTD/svg11.dtd"><svg t="1721382555062" class="icon" viewBox="0 0 1024 1024" version="1.1" xmlns="http://www.w3.org/2000/svg" p-id="4407" id="mx_n_1721382555062" xmlns:xlink="http://www.w3.org/1999/xlink" width="200" height="200"><path d="M100.1 399v221c0 30.5 24.7 55.3 55.3 55.3h82.9V343.7h-82.9c-30.5 0-55.3 24.8-55.3 55.3zM803 509.5l115.3-115.3c12.4-12.4 13.6-31.5 2.6-42.5s-30-9.9-42.5 2.6L763.1 469.6 647.9 354.3c-12.4-12.5-31.5-13.6-42.5-2.6s-9.9 30 2.6 42.5l115.3 115.3L608 624.8c-12.4 12.4-13.6 31.5-2.6 42.5s30 9.9 42.5-2.6l115.3-115.3 115.3 115.3c12.4 12.4 31.5 13.6 42.5 2.6s9.9-30-2.6-42.5L803 509.5zM486.9 178L293.5 306.9v405.2L486.9 841c30.5 0 55.3-24.7 55.3-55.3V233.2c-0.1-30.5-24.8-55.2-55.3-55.2z" fill="#000000" p-id="4408"></path></svg>